<svg id="图层_1" data-name="图层 1" xmlns="http://www.w3.org/2000/svg" viewBox="0 0 303.18 212.93"><defs><style>.cls-1{fill:#273be2;}.cls-2{fill:#003a4a;}.cls-3{fill:#f4c2c2;}.cls-4{fill:#fe6f5e;}.cls-5,.cls-6,.cls-7{fill:none;stroke:#273be2;}.cls-5,.cls-7{stroke-linecap:round;}.cls-5,.cls-6{stroke-width:10px;}.cls-6{stroke-linejoin:round;}.cls-7{stroke-width:10px;}</style></defs><path class="cls-1" d="M492,88.22H381.5L434.43-3.45l0-.06a5,5,0,0,0-1.87-6.82,5,5,0,0,0-6.82,1.88L373.12,82.77,323.71-2.81c-1.27-2.2-2-3.5-2.7-4.45l-.2-.29a5,5,0,0,0-4-2,5,5,0,0,0-4,2l-.18.26c-.74,1-1.47,2.31-2.74,4.51L200.89,186c-1.27,2.2-2,3.5-2.53,4.62l-.12.25a5,5,0,0,0,4,7h.26c1.29.12,2.75.12,5.29.12H425.73c2.54,0,4,0,5.34-.13h.21a4.87,4.87,0,0,0,1.46-.4,5,5,0,0,0,2.54-6.6l-.1-.23c-.54-1.13-1.27-2.43-2.54-4.63L382,98.22H492a5,5,0,0,0,0-10ZM220.16,187.68l137.65-79.51L312,187.68Zm103.34,0,49.23-85.27,49.2,85.27Z" transform="translate(-195.8 12.97)"/><path class="cls-2" d="M492,86.22H385L436.14-2.42l.06-.1a7,7,0,0,0,.67-5.32,7,7,0,0,0-3.29-4.22A7,7,0,0,0,424-9.45L373.12,78.77,325.44-3.81c-1.26-2.18-2.06-3.56-2.78-4.59l-.25-.35a7.05,7.05,0,0,0-5.6-2.8,7.06,7.06,0,0,0-5.64,2.86l-.16.23a46.75,46.75,0,0,0-2.53,4.12L199.16,185c-1.29,2.23-2.07,3.58-2.61,4.76l-.14.3a7,7,0,0,0,5.6,9.8h.4c1.36.12,2.89.12,5.38.12H425.73c2.44,0,4,0,5.43-.13h.35a6.93,6.93,0,0,0,2.05-.56,7,7,0,0,0,3.55-9.23l-.13-.29c-.57-1.2-1.33-2.55-2.61-4.77l-48.93-84.74H492a7,7,0,0,0,0-14Zm0,10H378.52L430.91,187c1.23,2.13,1.95,3.41,2.44,4.43l.1.24a3,3,0,0,1-1.52,4,3,3,0,0,1-.78.23h-.26c-1.2.11-2.56.12-5.16.12H207.79c-2.52,0-3.91,0-5.11-.11h-.31a3,3,0,0,1-2.54-3.31,2.59,2.59,0,0,1,.22-.83l.13-.28c.47-1,1.21-2.32,2.44-4.45l109-188.74.32-.56c1.06-1.83,1.69-2.93,2.33-3.81l.14-.2a3,3,0,0,1,2.4-1.2,3,3,0,0,1,2.35,1.14l.22.3c.63.9,1.4,2.22,2.6,4.3l51.14,88.58L427.51-7.46a3,3,0,0,1,4.09-1.13A3,3,0,0,1,433-6.78a3,3,0,0,1-.31,2.33L378,90.22H492a3,3,0,0,1,0,6Z" transform="translate(-195.8 12.97)"/><path class="cls-3" d="M256.8,95.85a5,5,0,0,1,4.32-2.48h96.65a5,5,0,0,1,2.48,9.34L215.38,185.39a5,5,0,0,1-6.79-6.86Z" transform="translate(-195.8 12.97)"/><path class="cls-4" d="M316.74-8.72l57.67,99.33H259.07Z" transform="translate(-195.8 12.97)"/><path class="cls-5" d="M372.94,94.2,210,188.31" transform="translate(-195.8 12.97)"/><path class="cls-6" d="M319.38-.3l109,188.74c1.18,2.06,1.89,3.3,2.32,4.23l.07.16h-.17c-1,.1-2.45.1-4.82.1H207.81c-2.37,0-3.8,0-4.82-.1h-.17l.07-.16c.43-.93,1.14-2.17,2.32-4.23L314.18-.3c1.19-2.05,1.91-3.29,2.5-4.12l.1-.14.1.14C317.47-3.59,318.19-2.35,319.38-.3Z" transform="translate(-195.8 12.97)"/><line class="cls-7" x1="234.32" y1="7.01" x2="120.32" y2="204.46"/><line class="cls-5" x1="296.15" y1="106.18" x2="68.15" y2="106.18"/></svg>