<svg width="303" height="214" viewBox="0 0 303 214" fill="none" xmlns="http://www.w3.org/2000/svg">
<path d="M62.8435 110.643C63.7395 109.107 65.3842 108.162 67.1629 108.162L163.815 108.162C168.944 108.162 170.748 114.962 166.294 117.505L21.4279 200.188C16.9867 202.723 12.0542 197.745 14.6301 193.327L62.8435 110.643Z" fill="#F4C2C2"/>
<path d="M122.786 6.07056L180.455 105.403L65.1182 105.403L122.786 6.07056Z" fill="#FE6F5E"/>
<path d="M178.988 109L16 203.101" stroke="#273BE2" stroke-width="10" stroke-linecap="round"/>
<path d="M125.422 14.5L234.39 203.238C235.576 205.292 236.288 206.535 236.716 207.464C236.742 207.52 236.766 207.573 236.787 207.622C236.734 207.628 236.677 207.633 236.615 207.639C235.597 207.733 234.164 207.738 231.792 207.738L13.8564 207.738C11.4842 207.738 10.0517 207.733 9.03334 207.639C8.9715 207.633 8.91407 207.628 8.86085 207.622C8.88238 207.573 8.90606 207.52 8.93207 207.464C9.36035 206.535 10.0723 205.292 11.2583 203.238L120.226 14.5C121.412 12.4456 122.133 11.2076 122.723 10.3723C122.759 10.3216 122.792 10.2748 122.824 10.2316C122.856 10.2748 122.89 10.3216 122.925 10.3723C123.516 11.2076 124.236 12.4457 125.422 14.5Z" stroke="#273BE2" stroke-width="10" stroke-linejoin="round"/>
<line x1="5" y1="-5" x2="233" y2="-5" transform="matrix(-0.5 0.866025 0.866025 0.5 243 7)" stroke="#273BE2" stroke-width="10" stroke-linecap="round"/>
<line x1="5" y1="-5" x2="233" y2="-5" transform="matrix(-1 -8.74228e-08 -8.74228e-08 1 303 113)" stroke="#273BE2" stroke-width="10" stroke-linecap="round"/>
</svg>
