<?xml version="1.0" encoding="UTF-8"?>
<svg id="_图层_1" data-name="图层 1" xmlns="http://www.w3.org/2000/svg" xmlns:xlink="http://www.w3.org/1999/xlink" viewBox="0 0 303.18 212.93">
  <defs>
    <style>
      .cls-1 {
        fill: url(#_未命名的渐变_47);
        opacity: .43;
      }

      .cls-2 {
        stroke-linecap: round;
      }

      .cls-2, .cls-3 {
        fill: none;
        stroke: #273be2;
        stroke-width: 10px;
      }

      .cls-4 {
        fill: #fe6f5e;
      }

      .cls-5 {
        fill: #f4c2c2;
      }

      .cls-3 {
        stroke-linejoin: round;
      }

      .cls-6 {
        fill: #273be2;
      }
    </style>
    <radialGradient id="_未命名的渐变_47" data-name="未命名的渐变 47" cx="151.6" cy="106.46" fx="151.6" fy="106.46" r="131" gradientUnits="userSpaceOnUse">
      <stop offset="0" stop-color="#fff" stop-opacity="0"/>
      <stop offset="1" stop-color="#fff" stop-opacity=".2"/>
    </radialGradient>
  </defs>
  <path class="cls-6" d="M296.2,101.19h-110.5L238.63,9.52v-.06c1.37-2.4.53-5.45-1.87-6.82,0,0,0,0,0,0-2.4-1.36-5.45-.52-6.82,1.88,0,0,0,0,0,0l-52.62,91.22L127.91,10.16c-1.27-2.2-2-3.5-2.7-4.45l-.2-.29c-.94-1.26-2.43-2-4-2s-3.06.74-4,2l-.18.26c-.74,1-1.47,2.31-2.74,4.51L5.09,198.97c-1.27,2.2-2,3.5-2.53,4.62l-.12.25c-1.12,2.52.01,5.48,2.54,6.6.46.21.96.34,1.46.4h.26c1.29.12,2.75.12,5.29.12h217.94c2.54,0,4,0,5.34-.13h.21c.5-.06,1-.19,1.46-.4,2.52-1.12,3.66-4.08,2.54-6.6,0,0,0,0,0,0l-.1-.23c-.54-1.13-1.27-2.43-2.54-4.63l-50.64-87.78h110c2.76,0,5-2.24,5-5s-2.24-5-5-5ZM24.36,200.65l137.65-79.51-45.81,79.51H24.36ZM127.7,200.65l49.23-85.27,49.2,85.27h-98.43Z"/>
  <path class="cls-1" d="M296.2,99.19h-107L240.34,10.55l.06-.1c.92-1.61,1.16-3.53.67-5.32-.49-1.79-1.68-3.3-3.29-4.22-3.35-1.93-7.63-.78-9.56,2.57,0,.01-.01.02-.02.04l-50.88,88.22L129.64,9.16c-1.26-2.18-2.06-3.56-2.78-4.59l-.25-.35c-1.33-1.76-3.4-2.79-5.6-2.8-2.23.01-4.32,1.07-5.64,2.86l-.16.23c-.91,1.33-1.76,2.7-2.53,4.12L3.36,197.97c-1.29,2.23-2.07,3.58-2.61,4.76l-.14.3c-1.57,3.53.02,7.67,3.55,9.24.65.29,1.34.48,2.05.56h.4c1.36.12,2.89.12,5.38.12h217.94c2.44,0,4,0,5.43-.13h.35c.71-.08,1.4-.27,2.05-.56,3.53-1.57,5.11-5.7,3.55-9.23l-.13-.29c-.57-1.2-1.33-2.55-2.61-4.77l-48.93-84.74h106.56c3.87,0,7-3.13,7-7s-3.13-7-7-7v-.04ZM296.2,109.19h-113.48l52.39,90.78c1.23,2.13,1.95,3.41,2.44,4.43l.1.24c.69,1.51.03,3.29-1.47,3.98-.02,0-.03.01-.05.02-.25.11-.51.19-.78.23h-.26c-1.2.11-2.56.12-5.16.12H11.99c-2.52,0-3.91,0-5.11-.11h-.31c-1.6-.24-2.72-1.7-2.54-3.31.03-.29.1-.57.22-.83l.13-.28c.47-1,1.21-2.32,2.44-4.45L115.82,11.27l.32-.56c1.06-1.83,1.69-2.93,2.33-3.81l.14-.2c.57-.76,1.46-1.2,2.4-1.2.92,0,1.78.42,2.35,1.14l.22.3c.63.9,1.4,2.22,2.6,4.3l51.14,88.58L231.71,5.51c.82-1.44,2.65-1.95,4.09-1.13,0,0,0,0,0,0,.69.39,1.19,1.05,1.4,1.81.22.79.11,1.63-.31,2.33l-54.69,94.67h114c1.66,0,3,1.34,3,3s-1.34,3-3,3Z"/>
  <path class="cls-5" d="M61,108.82c.9-1.54,2.54-2.48,4.32-2.48h96.65c2.76,0,5,2.24,5,5,0,1.79-.96,3.45-2.52,4.34L19.58,198.36c-2.4,1.36-5.45.52-6.82-1.88-.88-1.55-.87-3.44.03-4.98l48.21-82.68Z"/>
  <path class="cls-4" d="M120.94,4.25l57.67,99.33H63.27L120.94,4.25Z"/>
  <path class="cls-2" d="M177.14,107.17L14.2,201.28"/>
  <path class="cls-3" d="M123.58,12.67l109,188.74c1.18,2.06,1.89,3.3,2.32,4.23l.07.16h-.17c-1,.1-2.45.1-4.82.1H12.01c-2.37,0-3.8,0-4.82-.1h-.17l.07-.16c.43-.93,1.14-2.17,2.32-4.23L118.38,12.67c1.19-2.05,1.91-3.29,2.5-4.12l.1-.14.1.14c.59.83,1.31,2.07,2.5,4.12Z"/>
  <line class="cls-2" x1="234.32" y1="7.01" x2="120.32" y2="204.46"/>
  <line class="cls-2" x1="296.15" y1="106.18" x2="68.15" y2="106.18"/>
</svg>