<svg width="296" height="75" viewBox="0 0 296 75" fill="none" xmlns="http://www.w3.org/2000/svg">
<rect x="0.5" y="49.3638" width="19.0949" height="19.0949" stroke="white"/>
<rect x="23.2744" y="49.3638" width="20.4345" height="19.0949" stroke="white"/>
<rect x="47.3877" y="49.3638" width="20.4345" height="19.0949" stroke="white"/>
<rect x="0.5" y="25.2499" width="19.0949" height="20.4345" stroke="white"/>
<rect x="23.2744" y="25.2499" width="20.4345" height="20.4345" stroke="white"/>
<rect x="47.3877" y="25.2499" width="20.4345" height="20.4345" fill="white" stroke="white"/>
<rect x="0.5" y="1.13586" width="19.0949" height="20.4345" fill="white" stroke="white"/>
<rect x="23.2744" y="1.13586" width="20.4345" height="20.4345" stroke="white"/>
<rect x="47.3877" y="1.13586" width="20.4345" height="20.4345" stroke="white"/>
<path d="M225.158 66.279H219.644V55.6428C219.644 53.3926 219.526 51.9404 219.29 51.2863C219.055 50.6191 218.669 50.1023 218.133 49.736C217.609 49.3697 216.975 49.1865 216.229 49.1865C215.274 49.1865 214.417 49.4482 213.658 49.9715C212.9 50.4948 212.376 51.1882 212.089 52.0516C211.814 52.9151 211.676 54.5112 211.676 56.8399V66.279H206.162V45.4384H211.284V48.4997C213.102 46.1448 215.392 44.9674 218.152 44.9674C219.369 44.9674 220.481 45.1898 221.488 45.6346C222.496 46.0663 223.255 46.6224 223.765 47.3027C224.288 47.9829 224.648 48.7548 224.844 49.6183C225.053 50.4817 225.158 51.718 225.158 53.3272V66.279Z" fill="white"/>
<path d="M179.514 67.6526L185.813 68.418C185.918 69.1506 186.16 69.6543 186.54 69.929C187.063 70.3215 187.887 70.5177 189.012 70.5177C190.451 70.5177 191.531 70.3019 192.25 69.8701C192.734 69.5823 193.1 69.1179 193.349 68.4768C193.519 68.019 193.604 67.1751 193.604 65.9454V62.9037C191.956 65.1539 189.876 66.279 187.364 66.279C184.564 66.279 182.347 65.095 180.711 62.727C179.429 60.8562 178.788 58.5275 178.788 55.7409C178.788 52.2479 179.625 49.579 181.3 47.7344C182.988 45.8897 185.081 44.9674 187.58 44.9674C190.157 44.9674 192.283 46.0991 193.957 48.3623V45.4384H199.118V64.14C199.118 66.5995 198.916 68.4376 198.51 69.6543C198.105 70.871 197.535 71.826 196.803 72.5194C196.07 73.2127 195.089 73.7557 193.859 74.1481C192.643 74.5406 191.099 74.7369 189.228 74.7369C185.696 74.7369 183.19 74.1285 181.712 72.9118C180.234 71.7082 179.495 70.1776 179.495 68.3199C179.495 68.1367 179.501 67.9143 179.514 67.6526ZM184.44 55.4269C184.44 57.6379 184.865 59.2601 185.715 60.2937C186.579 61.3141 187.638 61.8243 188.894 61.8243C190.242 61.8243 191.38 61.301 192.309 60.2544C193.238 59.1947 193.702 57.6314 193.702 55.5643C193.702 53.4057 193.257 51.8031 192.368 50.7565C191.478 49.7099 190.353 49.1865 188.993 49.1865C187.671 49.1865 186.579 49.7033 185.715 50.7368C184.865 51.7573 184.44 53.3206 184.44 55.4269Z" fill="white"/>
<path d="M167.23 42.6125V37.5103H172.745V42.6125H167.23ZM167.23 66.2789V45.4383H172.745V66.2789H167.23Z" fill="white"/>
<path d="M141.311 60.3329L146.844 59.4891C147.08 60.5619 147.557 61.3795 148.277 61.9421C148.997 62.4916 150.004 62.7663 151.299 62.7663C152.725 62.7663 153.798 62.5046 154.517 61.9813C155.001 61.615 155.244 61.1244 155.244 60.5095C155.244 60.0909 155.113 59.7442 154.851 59.4695C154.576 59.2078 153.961 58.9658 153.006 58.7434C148.558 57.7622 145.739 56.866 144.548 56.0549C142.9 54.9298 142.076 53.3664 142.076 51.3648C142.076 49.5594 142.789 48.0418 144.215 46.8121C145.641 45.5823 147.852 44.9674 150.848 44.9674C153.7 44.9674 155.819 45.4318 157.206 46.3607C158.593 47.2896 159.548 48.6632 160.071 50.4817L154.871 51.4433C154.648 50.6322 154.223 50.0108 153.595 49.579C152.98 49.1473 152.097 48.9314 150.946 48.9314C149.494 48.9314 148.454 49.1342 147.826 49.5398C147.407 49.8276 147.198 50.2004 147.198 50.6583C147.198 51.0508 147.381 51.3844 147.747 51.6592C148.244 52.0255 149.958 52.5422 152.889 53.2094C155.832 53.8767 157.886 54.6943 159.051 55.6624C160.202 56.6436 160.777 58.0108 160.777 59.7638C160.777 61.6739 159.979 63.3158 158.383 64.6894C156.787 66.0631 154.426 66.7499 151.299 66.7499C148.46 66.7499 146.21 66.1743 144.548 65.023C142.9 63.8718 141.821 62.3084 141.311 60.3329Z" fill="white"/>
<path d="M131.342 59.6461L136.837 60.5684C136.13 62.5831 135.012 64.1203 133.481 65.18C131.963 66.2266 130.06 66.7499 127.77 66.7499C124.146 66.7499 121.465 65.566 119.725 63.198C118.351 61.301 117.664 58.9069 117.664 56.0157C117.664 52.5619 118.567 49.8603 120.372 47.911C122.178 45.9486 124.46 44.9674 127.221 44.9674C130.321 44.9674 132.768 45.9944 134.56 48.0484C136.353 50.0892 137.209 53.2225 137.131 57.4482H123.316C123.355 59.0835 123.8 60.3591 124.65 61.2749C125.501 62.1776 126.56 62.6289 127.829 62.6289C128.693 62.6289 129.419 62.3934 130.007 61.9225C130.596 61.4515 131.041 60.6927 131.342 59.6461ZM131.656 54.0729C131.617 52.4768 131.205 51.2667 130.42 50.4425C129.635 49.6052 128.68 49.1865 127.555 49.1865C126.351 49.1865 125.357 49.6248 124.572 50.5013C123.787 51.3779 123.401 52.5684 123.414 54.0729H131.656Z" fill="white"/>
<path d="M88.6416 37.5103H99.2581C101.652 37.5103 103.477 37.6934 104.733 38.0597C106.421 38.5569 107.866 39.4399 109.07 40.7089C110.274 41.978 111.189 43.5348 111.817 45.3794C112.445 47.211 112.759 49.4743 112.759 52.1693C112.759 54.5373 112.465 56.5781 111.876 58.292C111.157 60.3852 110.13 62.0794 108.795 63.3746C107.788 64.3558 106.427 65.1211 104.714 65.6706C103.431 66.0761 101.718 66.2789 99.5721 66.2789H88.6416V37.5103ZM94.4503 42.377V61.4318H98.7872C100.409 61.4318 101.58 61.3402 102.3 61.1571C103.242 60.9216 104.02 60.5225 104.635 59.96C105.263 59.3974 105.773 58.4751 106.166 57.193C106.558 55.8979 106.754 54.1382 106.754 51.9142C106.754 49.6902 106.558 47.9829 106.166 46.7924C105.773 45.6018 105.224 44.673 104.517 44.0058C103.811 43.3386 102.915 42.8872 101.829 42.6517C101.018 42.4686 99.4282 42.377 97.0603 42.377H94.4503Z" fill="white"/>
<path d="M290.206 22.1358L295.701 23.0582C294.994 25.0729 293.876 26.6101 292.345 27.6698C290.828 28.7164 288.924 29.2397 286.635 29.2397C283.011 29.2397 280.329 28.0557 278.589 25.6878C277.215 23.7908 276.528 21.3967 276.528 18.5054C276.528 15.0516 277.431 12.35 279.236 10.4007C281.042 8.43835 283.325 7.45715 286.085 7.45715C289.186 7.45715 291.632 8.48414 293.424 10.5381C295.217 12.579 296.074 15.7123 295.995 19.938H282.18C282.219 21.5733 282.664 22.8488 283.514 23.7646C284.365 24.6673 285.424 25.1187 286.694 25.1187C287.557 25.1187 288.283 24.8832 288.872 24.4122C289.46 23.9412 289.905 23.1824 290.206 22.1358ZM290.52 16.5626C290.481 14.9666 290.069 13.7564 289.284 12.9322C288.499 12.0949 287.544 11.6763 286.419 11.6763C285.215 11.6763 284.221 12.1146 283.436 12.9911C282.651 13.8676 282.265 15.0581 282.278 16.5626H290.52Z" fill="white"/>
<path d="M259.89 28.7686L251.491 7.92798H257.28L261.205 18.5641L262.343 22.1161C262.644 21.2134 262.834 20.6181 262.912 20.3303C263.095 19.7416 263.292 19.1529 263.501 18.5641L267.465 7.92798H273.136L264.855 28.7686H259.89Z" fill="white"/>
<path d="M241.366 5.10221V0H246.881V5.10221H241.366ZM241.366 28.7686V7.92806H246.881V28.7686H241.366Z" fill="white"/>
<path d="M215.444 22.8227L220.978 21.9788C221.214 23.0516 221.691 23.8693 222.411 24.4318C223.13 24.9813 224.138 25.256 225.433 25.256C226.859 25.256 227.932 24.9944 228.651 24.4711C229.135 24.1048 229.377 23.6142 229.377 22.9993C229.377 22.5806 229.246 22.234 228.985 21.9592C228.71 21.6976 228.095 21.4555 227.14 21.2331C222.692 20.2519 219.873 19.3558 218.682 18.5447C217.034 17.4196 216.21 15.8562 216.21 13.8545C216.21 12.0491 216.923 10.5316 218.349 9.3018C219.775 8.07204 221.986 7.45715 224.982 7.45715C227.834 7.45715 229.953 7.92159 231.34 8.85045C232.726 9.77932 233.681 11.153 234.205 12.9715L229.004 13.933C228.782 13.1219 228.357 12.5005 227.729 12.0688C227.114 11.637 226.231 11.4212 225.08 11.4212C223.628 11.4212 222.587 11.624 221.959 12.0295C221.541 12.3173 221.332 12.6902 221.332 13.1481C221.332 13.5406 221.515 13.8742 221.881 14.1489C222.378 14.5152 224.092 15.032 227.022 15.6992C229.966 16.3664 232.02 17.1841 233.184 18.1522C234.336 19.1334 234.911 20.5005 234.911 22.2536C234.911 24.1636 234.113 25.8055 232.517 27.1792C230.921 28.5528 228.56 29.2397 225.433 29.2397C222.594 29.2397 220.344 28.6641 218.682 27.5128C217.034 26.3615 215.955 24.7981 215.444 22.8227Z" fill="white"/>
<path d="M205.397 28.7687H199.883V7.92813H205.005V10.8913C205.881 9.4915 206.666 8.56917 207.36 8.12437C208.066 7.67956 208.864 7.45715 209.754 7.45715C211.01 7.45715 212.22 7.80384 213.384 8.49722L211.677 13.3051C210.748 12.7033 209.884 12.4024 209.086 12.4024C208.315 12.4024 207.66 12.6182 207.124 13.05C206.588 13.4686 206.162 14.2339 205.848 15.346C205.548 16.458 205.397 18.7867 205.397 22.3321V28.7687Z" fill="white"/>
<path d="M188.209 22.1358L193.704 23.0582C192.997 25.0729 191.879 26.6101 190.348 27.6698C188.831 28.7164 186.927 29.2397 184.638 29.2397C181.014 29.2397 178.332 28.0557 176.592 25.6878C175.218 23.7908 174.531 21.3967 174.531 18.5054C174.531 15.0516 175.434 12.35 177.239 10.4007C179.045 8.43835 181.328 7.45715 184.088 7.45715C187.189 7.45715 189.635 8.48414 191.427 10.5381C193.22 12.579 194.077 15.7123 193.998 19.938H180.183C180.222 21.5733 180.667 22.8488 181.517 23.7646C182.368 24.6673 183.427 25.1187 184.696 25.1187C185.56 25.1187 186.286 24.8832 186.875 24.4122C187.463 23.9412 187.908 23.1824 188.209 22.1358ZM188.523 16.5626C188.484 14.9666 188.072 13.7564 187.287 12.9322C186.502 12.0949 185.547 11.6763 184.422 11.6763C183.218 11.6763 182.224 12.1146 181.439 12.9911C180.654 13.8676 180.268 15.0581 180.281 16.5626H188.523Z" fill="white"/>
<path d="M138.366 7.92813H143.449V10.7736C145.267 8.56263 147.432 7.45715 149.944 7.45715C151.279 7.45715 152.437 7.73189 153.418 8.28136C154.399 8.83083 155.204 9.66157 155.831 10.7736C156.747 9.66157 157.735 8.83083 158.795 8.28136C159.854 7.73189 160.986 7.45715 162.19 7.45715C163.72 7.45715 165.015 7.77114 166.075 8.3991C167.135 9.01398 167.926 9.92322 168.45 11.1268C168.829 12.0164 169.019 13.4555 169.019 15.4441V28.7687H163.504V16.857C163.504 14.79 163.315 13.4555 162.935 12.8537C162.425 12.0688 161.64 11.6763 160.58 11.6763C159.809 11.6763 159.083 11.9118 158.402 12.3828C157.722 12.8537 157.231 13.5471 156.93 14.4629C156.63 15.3656 156.479 16.7981 156.479 18.7605V28.7687H150.965V17.3476C150.965 15.3198 150.867 14.0115 150.67 13.4228C150.474 12.8341 150.167 12.3958 149.748 12.108C149.343 11.8202 148.787 11.6763 148.08 11.6763C147.23 11.6763 146.464 11.9052 145.784 12.3631C145.104 12.821 144.613 13.4817 144.312 14.3451C144.024 15.2086 143.881 16.6411 143.881 18.6428V28.7687H138.366V7.92813Z" fill="white"/>
<path d="M101.004 7.92813H106.086V10.7736C107.905 8.56263 110.07 7.45715 112.582 7.45715C113.916 7.45715 115.074 7.73189 116.055 8.28136C117.037 8.83083 117.841 9.66157 118.469 10.7736C119.385 9.66157 120.373 8.83083 121.432 8.28136C122.492 7.73189 123.624 7.45715 124.827 7.45715C126.358 7.45715 127.653 7.77114 128.713 8.3991C129.773 9.01398 130.564 9.92322 131.087 11.1268C131.467 12.0164 131.656 13.4555 131.656 15.4441V28.7687H126.142V16.857C126.142 14.79 125.952 13.4555 125.573 12.8537C125.063 12.0688 124.278 11.6763 123.218 11.6763C122.446 11.6763 121.72 11.9118 121.04 12.3828C120.36 12.8537 119.869 13.5471 119.568 14.4629C119.267 15.3656 119.117 16.7981 119.117 18.7605V28.7687H113.602V17.3476C113.602 15.3198 113.504 14.0115 113.308 13.4228C113.112 12.8341 112.804 12.3958 112.386 12.108C111.98 11.8202 111.424 11.6763 110.718 11.6763C109.867 11.6763 109.102 11.9052 108.422 12.3631C107.741 12.821 107.251 13.4817 106.95 14.3451C106.662 15.2086 106.518 16.6411 106.518 18.6428V28.7687H101.004V7.92813Z" fill="white"/>
<path d="M88.4854 28.7686V0H94.294V28.7686H88.4854Z" fill="white"/>
</svg>
