<?xml version="1.0" encoding="UTF-8"?>
<svg id="Layer_1" xmlns="http://www.w3.org/2000/svg" version="1.1" viewBox="0 0 296 75">
  <!-- Generator: Adobe Illustrator 29.1.0, SVG Export Plug-In . SVG Version: 2.1.0 Build 142)  -->
  <defs>
    <style>
      .st0 {
        isolation: isolate;
      }

      .st1 {
        fill: #fff;
      }
    </style>
  </defs>
  <rect class="st1" x="6.5" y="3.4" width="1" height="64.8"/>
  <g class="st0">
    <g class="st0">
      <path class="st1" d="M73.8,19.4c.9,0,1.7-.1,2.3-.3,1.1-.4,1.7-1.1,1.7-2.2s-.3-1.1-.8-1.5c-.6-.3-1.4-.6-2.6-.9l-2-.5c-2-.5-3.4-.9-4.1-1.5-1.3-.9-1.9-2.3-1.9-4.2s.6-3.2,1.9-4.3,3.1-1.7,5.5-1.7,3.8.5,5.2,1.6,2.2,2.6,2.2,4.7h-3.9c0-1.2-.6-2-1.5-2.5-.6-.3-1.4-.5-2.3-.5s-1.9.2-2.5.6c-.6.4-.9,1-.9,1.7s.3,1.2.9,1.5c.4.2,1.2.5,2.5.8l3.3.8c1.5.3,2.5.8,3.3,1.4,1.1.9,1.7,2.2,1.7,3.9s-.7,3.2-2,4.4-3.2,1.7-5.7,1.7-4.5-.6-5.9-1.7-2.2-2.7-2.2-4.7h3.8c.1.9.4,1.5.7,2,.7.8,1.8,1.2,3.4,1.2Z"/>
      <path class="st1" d="M96.2,9.8c1.2,1.5,1.8,3.3,1.8,5.3s-.6,3.9-1.8,5.4c-1.2,1.5-3,2.2-5.5,2.2s-4.3-.7-5.5-2.2c-1.2-1.5-1.8-3.3-1.8-5.4s.6-3.8,1.8-5.3c1.2-1.5,3-2.3,5.5-2.3s4.3.8,5.5,2.3ZM90.7,10.7c-1.1,0-1.9.4-2.5,1.2-.6.8-.9,1.9-.9,3.3s.3,2.5.9,3.3c.6.8,1.4,1.2,2.5,1.2s1.9-.4,2.5-1.2c.6-.8.9-1.9.9-3.3s-.3-2.5-.9-3.3c-.6-.8-1.4-1.2-2.5-1.2Z"/>
      <path class="st1" d="M109.8,20.2s-.1.2-.3.4c-.1.2-.3.4-.5.6-.6.5-1.1.9-1.7,1.1-.5.2-1.2.3-1.9.3-2.1,0-3.5-.8-4.3-2.3-.4-.8-.6-2.1-.6-3.7V8h3.8v8.6c0,.8,0,1.4.3,1.8.3.7,1,1.1,2,1.1s2.1-.5,2.6-1.5c.2-.6.4-1.3.4-2.2v-7.7h3.8v14.2h-3.6v-2Z"/>
      <path class="st1" d="M123.6,10.7c-1.3,0-2.1.5-2.6,1.6-.2.6-.4,1.3-.4,2.2v7.7h-3.7v-14.2h3.6v2.1c.5-.7.9-1.3,1.4-1.6.8-.6,1.7-.9,2.9-.9s2.7.4,3.6,1.2c.9.8,1.4,2,1.4,3.8v9.6h-3.8v-8.6c0-.7-.1-1.3-.3-1.7-.4-.7-1.1-1.1-2.1-1.1Z"/>
      <path class="st1" d="M146.2,3v19.2h-3.6v-2c-.5.8-1.1,1.5-1.8,1.8-.7.4-1.5.6-2.5.6-1.7,0-3.1-.7-4.2-2-1.1-1.3-1.7-3.1-1.7-5.2s.6-4.3,1.7-5.7c1.1-1.4,2.6-2.1,4.5-2.1s1.6.2,2.3.6c.7.4,1.2.9,1.6,1.6V3h3.8ZM136.2,15.2c0,1.3.3,2.4.8,3.1.5.8,1.3,1.2,2.3,1.2s1.9-.4,2.4-1.2c.5-.8.8-1.8.8-3s-.4-3-1.3-3.7c-.5-.5-1.2-.7-1.9-.7-1.1,0-1.9.4-2.4,1.2s-.8,1.8-.8,3.1Z"/>
    </g>
    <g class="st0">
      <path class="st1" d="M73.8,42.1c.9,0,1.7-.1,2.3-.3,1.1-.4,1.7-1.1,1.7-2.2s-.3-1.1-.8-1.5c-.6-.3-1.4-.6-2.6-.9l-2-.5c-2-.5-3.4-.9-4.1-1.5-1.3-.9-1.9-2.3-1.9-4.2s.6-3.2,1.9-4.3,3.1-1.7,5.5-1.7,3.8.5,5.2,1.6,2.2,2.6,2.2,4.7h-3.9c0-1.2-.6-2-1.5-2.5-.6-.3-1.4-.5-2.3-.5s-1.9.2-2.5.6c-.6.4-.9,1-.9,1.7s.3,1.2.9,1.5c.4.2,1.2.5,2.5.8l3.3.8c1.5.3,2.5.8,3.3,1.4,1.1.9,1.7,2.2,1.7,3.9s-.7,3.2-2,4.4-3.2,1.7-5.7,1.7-4.5-.6-5.9-1.7-2.2-2.7-2.2-4.7h3.8c.1.9.4,1.5.7,2,.7.8,1.8,1.2,3.4,1.2Z"/>
      <path class="st1" d="M90.8,42.3v2.8h-1.8c-1.8.1-3-.2-3.6-.8-.4-.4-.6-1.1-.6-2v-8.7h-2v-2.6h2v-4h3.7v4h2.3v2.6h-2.3v7.5c0,.6,0,.9.2,1.1.1.1.6.2,1.4.2s.2,0,.4,0c.1,0,.2,0,.4,0Z"/>
      <path class="st1" d="M102.3,42.9s-.1.2-.3.4c-.1.2-.3.4-.5.6-.6.5-1.1.9-1.7,1.1-.5.2-1.2.3-1.9.3-2.1,0-3.5-.8-4.3-2.3-.4-.8-.6-2.1-.6-3.7v-8.6h3.8v8.6c0,.8,0,1.4.3,1.8.3.7,1,1.1,2,1.1s2.1-.5,2.6-1.5c.2-.6.4-1.3.4-2.2v-7.7h3.8v14.2h-3.6v-2Z"/>
      <path class="st1" d="M122.5,25.7v19.2h-3.6v-2c-.5.8-1.1,1.5-1.8,1.8-.7.4-1.5.6-2.5.6-1.7,0-3.1-.7-4.2-2-1.1-1.3-1.7-3.1-1.7-5.2s.6-4.3,1.7-5.7c1.1-1.4,2.6-2.1,4.5-2.1s1.6.2,2.3.6c.7.4,1.2.9,1.6,1.6v-6.8h3.8ZM112.5,37.9c0,1.3.3,2.4.8,3.1.5.8,1.3,1.2,2.3,1.2s1.9-.4,2.4-1.2c.5-.8.8-1.8.8-3s-.4-3-1.3-3.7c-.5-.5-1.2-.7-1.9-.7-1.1,0-1.9.4-2.4,1.2s-.8,1.8-.8,3.1Z"/>
      <path class="st1" d="M129.7,25.6v3.4h-3.8v-3.4h3.8ZM129.7,30.7v14.2h-3.8v-14.2h3.8Z"/>
      <path class="st1" d="M145.4,40.7c0,.8-.5,1.7-1.3,2.6-1.2,1.4-2.9,2.1-5.1,2.1s-3.4-.6-4.8-1.7c-1.4-1.2-2.1-3.1-2.1-5.7s.6-4.3,1.9-5.7,2.9-2,4.9-2,2.2.2,3.2.7c.9.4,1.7,1.1,2.3,2.1.6.8.9,1.8,1.1,2.9,0,.7.1,1.6.1,2.8h-9.7c0,1.4.5,2.4,1.3,3,.5.4,1.1.5,1.9.5s1.4-.2,1.9-.7c.3-.2.5-.6.7-1h3.8ZM141.8,36.4c0-1-.4-1.7-.9-2.2-.5-.5-1.2-.8-2-.8s-1.5.3-2,.8c-.5.5-.8,1.3-.9,2.2h5.8Z"/>
      <path class="st1" d="M157.9,31.3c1.1.7,1.8,1.9,1.9,3.7h-3.7c0-.5-.2-.9-.4-1.1-.4-.5-1.1-.8-2.1-.8s-1.4.1-1.7.4c-.3.3-.5.5-.5.9s.2.7.5.9c.4.2,1.7.5,3.9,1,1.5.3,2.6.9,3.3,1.6.7.7,1.1,1.6,1.1,2.7s-.5,2.6-1.6,3.4c-1,.9-2.7,1.3-4.9,1.3s-3.9-.5-4.9-1.4c-1.1-.9-1.6-2.1-1.6-3.6h3.8c0,.7.2,1.1.5,1.4.5.5,1.3.7,2.6.7s1.3-.1,1.7-.3c.4-.2.6-.5.6-1s-.2-.7-.5-1c-.3-.2-1.6-.6-3.9-1.1-1.6-.4-2.7-.9-3.4-1.5-.7-.6-1-1.4-1-2.6s.5-2.4,1.5-3.4c1-.9,2.5-1.4,4.3-1.4s3.2.4,4.3,1.1Z"/>
    </g>
    <g class="st0">
      <path class="st1" d="M78.6,67.1c-1.1.7-2.4,1-3.9,1-2.5,0-4.6-.9-6.3-2.6-1.7-1.8-2.5-4.2-2.5-7.3s.9-5.6,2.6-7.5c1.7-1.9,4-2.8,6.8-2.8s4.4.6,5.9,1.9,2.3,2.8,2.5,4.6h-4c-.3-1.3-1-2.2-2.2-2.8-.7-.3-1.4-.4-2.2-.4-1.5,0-2.8.6-3.8,1.8s-1.5,2.9-1.5,5.3.5,4,1.6,5c1.1,1,2.3,1.5,3.7,1.5s2.5-.4,3.3-1.2c.9-.8,1.4-1.8,1.6-3.1h-4.4v-3.2h8v10.3h-2.7l-.4-2.4c-.8.9-1.5,1.6-2.1,1.9Z"/>
      <path class="st1" d="M94.4,56.8c-1.5,0-2.5.5-3,1.5-.3.5-.4,1.4-.4,2.5v6.8h-3.7v-14.2h3.5v2.5c.6-.9,1.1-1.6,1.5-1.9.7-.6,1.6-.9,2.7-.9s.1,0,.2,0c0,0,.2,0,.3,0v3.8c-.2,0-.4,0-.6,0-.2,0-.3,0-.4,0Z"/>
      <path class="st1" d="M109.5,55.2c1.2,1.5,1.8,3.3,1.8,5.3s-.6,3.9-1.8,5.4c-1.2,1.5-3,2.2-5.5,2.2s-4.3-.7-5.5-2.2c-1.2-1.5-1.8-3.3-1.8-5.4s.6-3.8,1.8-5.3c1.2-1.5,3-2.3,5.5-2.3s4.3.8,5.5,2.3ZM104.1,56.1c-1.1,0-1.9.4-2.5,1.2-.6.8-.9,1.9-.9,3.3s.3,2.5.9,3.3c.6.8,1.4,1.2,2.5,1.2s1.9-.4,2.5-1.2c.6-.8.9-1.9.9-3.3s-.3-2.5-.9-3.3c-.6-.8-1.4-1.2-2.5-1.2Z"/>
      <path class="st1" d="M123.1,65.6s-.1.2-.3.4c-.1.2-.3.4-.5.6-.6.5-1.1.9-1.7,1.1-.5.2-1.2.3-1.9.3-2.1,0-3.5-.8-4.3-2.3-.4-.8-.6-2.1-.6-3.7v-8.6h3.8v8.6c0,.8,0,1.4.3,1.8.3.7,1,1.1,2,1.1s2.1-.5,2.6-1.5c.2-.6.4-1.3.4-2.2v-7.7h3.8v14.2h-3.6v-2Z"/>
      <path class="st1" d="M142.2,54.9c1.1,1.2,1.7,3,1.7,5.4s-.6,4.4-1.7,5.7-2.6,2-4.3,2-2.1-.3-2.8-.8c-.4-.3-.8-.8-1.2-1.4v7.4h-3.7v-19.8h3.6v2.1c.4-.6.8-1.1,1.3-1.5.8-.6,1.8-1,2.9-1,1.7,0,3.1.6,4.2,1.8ZM140.1,60.5c0-1.1-.2-2.1-.7-2.9-.5-.8-1.3-1.3-2.4-1.3s-2.3.6-2.8,1.9c-.3.7-.4,1.5-.4,2.6,0,1.7.4,2.8,1.3,3.5.5.4,1.1.6,1.9.6,1,0,1.8-.4,2.4-1.2.5-.8.8-1.9.8-3.2Z"/>
    </g>
  </g>
</svg>